# xmcd
#
# Track frame offsets: 
#        150
#        14732
#        29900
#        45328
#        60084
#        71792
#        85396
#        99409
#        113023
#        128748
#        143374
#        157843
#        170641
#        184194
#        199264
#        212170
#        225595
#        240763
#        254551
#        269702
#
# Disc length: 3782 seconds
#
# Revision: 0
# Processed by: cddbd v1.5.2PL0 Copyright (c) Steve Scherf et al.
# Submitted via: ExactAudioCopy v0.99pb4
#
DISCID=160ec414
DTITLE=Various Artist - Original Hits of 1940
DYEAR=1940
DGENRE=Easy Listening
TTITLE0=The Ink Spots - Climb the Highest Mountain
TTITLE1=Benny Carter Orchestra - All of Me
TTITLE2=Lena Horne - One for My Baby
TTITLE3=Glenn Miller - Pennsylvania 6-5000
TTITLE4=Bob Wills and His Texas Playboys - Time Changes Everything
TTITLE5=Billie Holiday - Night and Day
TTITLE6=Artie Shaw - Frenesi
TTITLE7=Fats Waller - Taint Nobody's Business
TTITLE8=Elizabeth Welch - The Nearness of You
TTITLE9=Tommy Dorsey - Stardust
TTITLE10=Charlie Barnet - Rockin In Rhythm
TTITLE11=Duke Ellington - Sophisticated Lady
TTITLE12=Lionel Hampton - Flying Home
TTITLE13=Turner Layton - A Nightingale Sang In Berkeley Square
TTITLE14=Cab Calloway - Are You Hep to the Jive?
TTITLE15=Bukka White - Black Train Blues
TTITLE16=Benny Goodman - Goodbye
TTITLE17=Benny Carter Orchestra - Sleep
TTITLE18=Artie Shaw - Summit Ridge Drive
TTITLE19=Billie Holiday - The Man I Love
EXTD=
EXTT0=
EXTT1=
EXTT2=
EXTT3=
EXTT4=
EXTT5=
EXTT6=
EXTT7=
EXTT8=
EXTT9=
EXTT10=
EXTT11=
EXTT12=
EXTT13=
EXTT14=
EXTT15=
EXTT16=
EXTT17=
EXTT18=
EXTT19=
PLAYORDER=
